<?xml version="1.0"?>
<svg width="110" height="135" xmlns="http://www.w3.org/2000/svg" xmlns:svg="http://www.w3.org/2000/svg" version="1.1">
 <g class="layer">
  <title>Layer 1</title>
  <path d="m61.29,113.99c-0.02,-0.02 -0.56,-0.06 -1.21,-0.08c-0.65,-0.03 -1.22,-0.07 -1.28,-0.09c-0.05,-0.02 -0.37,-0.05 -0.69,-0.08c-0.33,-0.03 -0.67,-0.06 -0.76,-0.08c-0.09,-0.01 -0.38,-0.05 -0.64,-0.08c-1.19,-0.14 -3.65,-0.62 -5.14,-1.01c-6.2,-1.62 -11.94,-4.49 -16.81,-8.39c-1.74,-1.4 -4.41,-3.92 -5.62,-5.34c-0.26,-0.3 -0.51,-0.59 -0.56,-0.63c-0.04,-0.05 -0.31,-0.38 -0.6,-0.73c-0.28,-0.35 -0.53,-0.66 -0.55,-0.68c-0.05,-0.04 -1.71,-2.32 -1.89,-2.59c-0.1,-0.15 -0.34,-0.52 -1.07,-1.67c-0.86,-1.33 -2.07,-3.67 -2.88,-5.5c-0.56,-1.28 -0.93,-2.24 -1.41,-3.66c-0.07,-0.22 -0.18,-0.52 -0.23,-0.68c-0.06,-0.15 -0.13,-0.38 -0.17,-0.52c-0.03,-0.13 -0.12,-0.45 -0.2,-0.72c-0.36,-1.3 -0.75,-2.89 -0.88,-3.62c-0.02,-0.11 -0.09,-0.47 -0.15,-0.8s-0.14,-0.77 -0.17,-0.99s-0.07,-0.42 -0.07,-0.44c-0.01,-0.02 -0.04,-0.25 -0.08,-0.52c-0.03,-0.26 -0.07,-0.57 -0.08,-0.68c-0.02,-0.11 -0.06,-0.45 -0.09,-0.75s-0.06,-0.67 -0.08,-0.8c-0.14,-1.11 -0.19,-4.4 -0.09,-6.31c0.36,-7.21 2.63,-14.57 6.41,-20.82c0.84,-1.39 2.66,-4 3.34,-4.78c0.09,-0.11 0.45,-0.54 0.79,-0.96c0.95,-1.13 2.53,-2.81 3.51,-3.7c1.31,-1.2 1.48,-1.36 1.78,-1.61c0.16,-0.12 0.3,-0.24 0.32,-0.27c0.03,-0.02 0.29,-0.23 0.6,-0.47s0.58,-0.46 0.6,-0.49c0.02,-0.02 0.47,-0.36 0.99,-0.73c0.53,-0.38 1,-0.72 1.04,-0.76c0.04,-0.03 0.22,-0.15 0.4,-0.25s0.33,-0.22 0.36,-0.25c0.02,-0.02 0.2,-0.14 0.4,-0.26c0.19,-0.13 0.61,-0.38 0.91,-0.57s0.67,-0.41 0.8,-0.48c0.13,-0.07 0.42,-0.23 0.64,-0.35c0.22,-0.13 0.56,-0.31 0.75,-0.4c0.2,-0.1 0.38,-0.2 0.4,-0.23c0.02,-0.04 0.27,-0.17 0.56,-0.29c0.28,-0.13 0.57,-0.27 0.64,-0.33c0.15,-0.12 2.91,-1.32 3.68,-1.59c1.07,-0.39 2.41,-0.84 2.81,-0.96c0.22,-0.06 0.51,-0.14 0.64,-0.18c1.89,-0.57 4.78,-1.16 7.01,-1.44c0.39,-0.05 0.8,-0.1 0.91,-0.12c0.1,-0.01 0.58,-0.05 1.07,-0.08s1.09,-0.06 1.33,-0.08c1.41,-0.1 3.06,-0.12 2.95,-0.04c-0.07,0.05 -0.26,0.12 -0.44,0.17c-0.18,0.05 -0.69,0.27 -1.16,0.49c-1.35,0.65 -4.15,2.05 -4.55,2.28c-0.64,0.36 -1.5,0.88 -2.06,1.25c-0.19,0.12 -0.42,0.27 -0.49,0.31c-0.43,0.26 -2.2,1.52 -2.3,1.64c-0.02,0.02 -0.29,0.24 -0.6,0.48s-0.57,0.45 -0.59,0.47c-0.03,0.03 -0.29,0.26 -0.6,0.52c-5.6,4.78 -9.92,11.34 -12.24,18.57c-0.75,2.37 -1.46,5.67 -1.63,7.65c-0.03,0.35 -0.06,0.66 -0.08,0.68c-0.07,0.12 -0.16,2.28 -0.16,4.1c0,1.82 0.05,3.1 0.16,3.91c0.01,0.13 0.05,0.47 0.08,0.76c0.04,0.46 0.08,0.71 0.24,1.79c0.05,0.3 0.57,2.79 0.75,3.55c0.09,0.36 0.22,0.83 0.32,1.19c0.04,0.11 0.18,0.57 0.32,1.04s0.34,1.04 0.45,1.3c0.1,0.25 0.19,0.5 0.19,0.56c0,0.11 1.65,3.94 1.75,4.07c0.03,0.05 0.22,0.39 0.42,0.76c0.32,0.63 0.98,1.79 1.39,2.46c0.09,0.16 0.21,0.37 0.27,0.47s0.12,0.18 0.16,0.18c0.04,0 0.07,0.04 0.07,0.08c0,0.04 0.18,0.34 0.4,0.65c0.22,0.33 0.44,0.65 0.49,0.73s0.17,0.22 0.24,0.31c0.08,0.09 0.14,0.19 0.14,0.22c0,0.03 0.07,0.12 0.15,0.21c0.08,0.08 0.3,0.36 0.49,0.63c0.33,0.44 0.56,0.73 0.76,0.95c0.04,0.05 0.26,0.3 0.47,0.56c2.16,2.58 5.18,5.28 8.17,7.29c2.09,1.4 2.63,1.71 4.9,2.83c4.51,2.22 8.95,3.49 14.19,4.04c1.5,0.16 7.8,0.12 8.08,-0.05c0.02,-0.02 0.27,-0.05 0.56,-0.07c0.28,-0.03 0.61,-0.07 0.72,-0.09s0.66,-0.11 1.22,-0.2c1,-0.16 1.86,-0.34 2.92,-0.6c0.29,-0.07 0.58,-0.14 0.67,-0.16c0.45,-0.11 1.76,-0.51 2.52,-0.77c0.37,-0.13 0.82,-0.28 1,-0.33c0.17,-0.05 0.67,-0.25 1.11,-0.42c0.44,-0.18 1.2,-0.49 1.68,-0.67s1.14,-0.47 1.46,-0.62c0.32,-0.15 0.59,-0.26 0.61,-0.24c0.02,0.02 -0.54,0.6 -1.24,1.28c-0.7,0.69 -1.27,1.31 -1.27,1.37c0,0.07 -0.21,0.31 -0.45,0.54c-0.25,0.23 -0.53,0.49 -0.62,0.58c-0.48,0.45 -2.67,2.21 -3.23,2.59c-0.1,0.06 -0.22,0.15 -0.27,0.2c-0.22,0.19 -1.86,1.29 -2.61,1.73c-1.56,0.94 -1.94,1.15 -2.66,1.52c-0.44,0.22 -0.85,0.45 -0.92,0.5c-0.16,0.12 -4.2,1.87 -4.32,1.87c-0.05,0 -0.31,0.08 -0.57,0.19c-1.01,0.39 -2.46,0.85 -3.59,1.13c-0.26,0.07 -0.68,0.17 -0.92,0.23c-0.73,0.19 -2.25,0.52 -2.59,0.56c-0.17,0.03 -0.37,0.06 -0.44,0.08c-0.1,0.03 -1.8,0.27 -2.75,0.39c-0.18,0.02 -0.63,0.06 -1,0.09c-0.37,0.03 -0.76,0.07 -0.87,0.09c-0.26,0.04 -4.5,0.12 -4.54,0.08l0,-0.02zm-2.74,-88.74c0.02,-0.05 -0.01,-0.06 -0.08,-0.03c-0.13,0.05 -0.16,0.11 -0.04,0.11c0.04,0 0.09,-0.04 0.12,-0.08z" fill="#ffffff" id="svg_1"/>
 </g>
</svg>